<svg fill="#eee" height="512pt" viewBox="0 0 512 512" width="512pt" xmlns="http://www.w3.org/2000/svg"><path d="m437.019531 74.980469c-48.351562-48.351563-112.640625-74.980469-181.019531-74.980469s-132.667969 26.628906-181.019531 74.980469c-48.351563 48.351562-74.980469 112.640625-74.980469 181.019531s26.628906 132.667969 74.980469 181.019531c48.351562 48.351563 112.640625 74.980469 181.019531 74.980469 36.214844 0 71.226562-7.414062 104.054688-22.035156 31.707031-14.121094 59.808593-34.226563 83.527343-59.753906l-21.976562-20.421876c-20.953125 22.550782-45.765625 40.304688-73.757813 52.769532-28.960937 12.902344-59.867187 19.441406-91.847656 19.441406-60.367188 0-117.121094-23.507812-159.804688-66.195312-42.6875-42.683594-66.195312-99.4375-66.195312-159.804688s23.507812-117.121094 66.195312-159.804688c42.683594-42.6875 99.4375-66.195312 159.804688-66.195312s117.121094 23.507812 159.804688 66.195312c42.6875 42.683594 66.195312 99.4375 66.195312 159.804688h-30l60 60v-60c0-68.378906-26.628906-132.667969-74.980469-181.019531zm0 0"/><path d="m256 80c-97.046875 0-176 78.953125-176 176s78.953125 176 176 176 176-78.953125 176-176-78.953125-176-176-176zm0 322c-80.503906 0-146-65.496094-146-146s65.496094-146 146-146 146 65.496094 146 146-65.496094 146-146 146zm0 0"/><path d="m197.105469 175.894531-21.210938 21.210938 73.890625 73.894531h62.214844v-30h-49.785156zm0 0"/><path d="m372 256c0 8.285156-6.714844 15-15 15s-15-6.714844-15-15 6.714844-15 15-15 15 6.714844 15 15zm0 0"/><path d="m170 256c0 8.285156-6.714844 15-15 15s-15-6.714844-15-15 6.714844-15 15-15 15 6.714844 15 15zm0 0"/><path d="m271 357c0 8.285156-6.714844 15-15 15s-15-6.714844-15-15 6.714844-15 15-15 15 6.714844 15 15zm0 0"/><path d="m271 155c0 8.285156-6.714844 15-15 15s-15-6.714844-15-15 6.714844-15 15-15 15 6.714844 15 15zm0 0"/></svg>