<svg fill="#eee" id="Layer_1" enable-background="new 0 0 512.001 512.001" height="512" viewBox="0 0 512.001 512.001" width="512" xmlns="http://www.w3.org/2000/svg"><g><g><path d="m229.504 261.242c5.523 0 10-4.477 10-10s-4.477-10-10-10h-.007c-5.523 0-9.997 4.477-9.997 10s4.481 10 10.004 10z"/><path d="m282.504 261.242c5.522 0 10-4.477 10-10s-4.478-10-10-10h-.007c-5.522 0-9.997 4.477-9.997 10s4.482 10 10.004 10z"/><path d="m369.879 347.52c1.137-1.208 2.154-2.537 2.991-3.997 2.965-5.172 3.636-11.401 1.84-17.089l-98.259-311.361c-2.085-6.705-7.322-11.968-14.011-14.078-11.263-3.555-23.314 2.718-26.869 13.979l-98.29 311.463c-1.743 5.526-1.133 11.625 1.67 16.731.873 1.591 1.961 3.034 3.188 4.339-22.997 16.997-37.075 44.046-37.075 73.304v81.19c0 5.523 4.477 10 10 10h281.871c5.522 0 10-4.477 10-10v-81.19c.001-29.263-14.067-56.296-37.056-73.291zm-213.524-15.067 98.29-311.46c.236-.745 1.034-1.159 1.779-.925.637.201.863.726.943.983l98.271 311.403c.124.392.084.77-.118 1.122-.144.25-.422.572-.938.689-.119.027-.237.057-.355.088-32.072 8.552-65.121 12.889-98.23 12.889-33.261 0-66.451-4.374-98.654-13.002-.461-.123-.722-.447-.859-.698-.137-.248-.27-.64-.129-1.089zm230.581 159.548h-261.871v-71.19c0-27.242 15.657-52.04 40.131-63.996 26.529 6.167 53.616 9.608 80.805 10.289v43.604c0 5.523 4.477 10 10 10s10-4.477 10-10v-43.604c27.183-.681 54.269-4.123 80.8-10.289 24.48 11.954 40.135 36.741 40.135 63.997z"/><path d="m256.001 445.704c-5.523 0-10 4.477-10 10v.007c0 5.523 4.477 9.996 10 9.996s10-4.48 10-10.003-4.477-10-10-10z"/></g></g></svg>