<svg fill="#eee" height="512pt" viewBox="0 -23 512 512" width="512pt" xmlns="http://www.w3.org/2000/svg"><path d="m492 306c11.046875 0 20-8.953125 20-20v-88c0-44.113281-35.886719-80-80-80h-41v-38c0-44.113281-35.886719-80-80-80h-231c-44.113281 0-80 35.886719-80 80v149.121094c0 44.113281 35.886719 80 80 80h97v40h-46c-11.046875 0-20 8.953125-20 20s8.953125 20 20 20h126.078125c1.648437 42.667968 36.855469 76.878906 79.921875 76.878906h95c44.113281 0 80-35.886719 80-80 0-11.046875-8.953125-20-20-20s-20 8.953125-20 20c0 22.054688-17.945312 40-40 40h-95c-22.054688 0-40-17.945312-40-40v-188c0-22.054688 17.945312-40 40-40h95c22.054688 0 40 17.945312 40 40v88c0 11.046875 8.953125 20 20 20zm-275 3.121094h40v40h-40zm40-111.121094v71.121094h-177c-22.054688 0-40-17.941406-40-40v-149.121094c0-22.054688 17.945312-40 40-40h231c22.054688 0 40 17.945312 40 40v38h-14c-44.113281 0-80 35.886719-80 80zm147 157c11.046875 0 20 8.953125 20 20s-8.953125 20-20 20h-39c-11.046875 0-20-8.953125-20-20s8.953125-20 20-20zm0 0"/></svg>