<?xml version="1.0" encoding="UTF-8" standalone="no"?>
<!-- Created with Inkscape (http://www.inkscape.org/) -->

<svg
   width="65.054703mm"
   height="64.054703mm"
   viewBox="0 0 65.054703 64.054703"
   version="1.1"
   id="svg117358"
   xmlns="http://www.w3.org/2000/svg"
   xmlns:svg="http://www.w3.org/2000/svg">
  <defs
     id="defs117355" />
  <g
     id="layer1"
     transform="translate(-83.37046,-93.233132)">
    <path
       style="fill:#ffb200;fill-opacity:1;stroke:none;stroke-width:0.264583px;stroke-linecap:butt;stroke-linejoin:miter;stroke-opacity:1"
       d="m 115.9002,137.73927 c 14.47664,-19.06069 -9.39157,-17.85333 -4.95677,-34.44313 -13.826124,24.62508 7.40574,13.08753 4.95677,34.44313 z"
       id="path140663-9" />
    <path
       style="fill:#ffd22d;fill-opacity:1;stroke:none;stroke-width:0.264583px;stroke-linecap:butt;stroke-linejoin:miter;stroke-opacity:1"
       d="m 98.90141,126.2419 c 0.183606,-0.61301 8.47916,-0.28056 8.6139,-0.004 0.13474,0.27656 7.56085,22.41083 7.56085,22.41083 0,0 4.78105,-13.62598 7.09452,-22.29362 2.31347,-8.66764 -20.52201,-13.54999 -4.85512,-33.035781 -4.4214,14.238441 16.29723,22.802451 13.25212,33.065751 -3.04511,10.2633 -9.40504,30.89984 -11.29562,30.90227 -1.89058,0.002 -7.13128,-0.003 -9.02642,0 -1.89515,0.003 -11.527836,-30.43244 -11.34423,-31.04545 z"
       id="path142454" />
    <path
       style="fill:#ffb200;fill-opacity:1;stroke:none;stroke-width:0.264583px;stroke-linecap:butt;stroke-linejoin:miter;stroke-opacity:1"
       d="m 100.79292,126.15569 c 0.18361,-0.61301 8.47916,-0.28056 8.6139,-0.004 0.13474,0.27656 7.56085,22.41083 7.56085,22.41083 0,0 4.78105,-13.62598 7.09452,-22.29362 2.31347,-8.66764 -20.52201,-13.54999 -4.85512,-33.035768 -4.42139,14.238428 16.29723,22.802438 13.25212,33.065738 -3.04511,10.2633 -9.40504,30.89984 -11.29562,30.90227 -1.89058,0.002 -7.13128,-0.003 -9.02642,0 -1.89514,0.003 -11.52783,-30.43244 -11.34423,-31.04545 z"
       id="path142454-0" />
    <path
       style="fill:#ffd22d;fill-opacity:1;stroke:none;stroke-width:0.264583px;stroke-linecap:butt;stroke-linejoin:miter;stroke-opacity:1"
       d="m 98.90141,126.2419 c 0.183606,-0.61301 8.47916,-0.28056 8.6139,-0.004 0.13474,0.27656 7.56085,22.41083 7.56085,22.41083 0,0 4.78105,-13.62598 7.09452,-22.29362 2.31347,-8.66764 -20.52201,-13.54999 -4.85512,-33.035781 -4.4214,14.238441 16.29723,22.802451 13.25212,33.065751 -3.04511,10.2633 -9.40504,30.89984 -11.29562,30.90227 -1.89058,0.002 -7.13128,-0.003 -9.02642,0 -1.89515,0.003 -11.527836,-30.43244 -11.34423,-31.04545 z"
       id="path26259" />
    <path
       style="fill:#ffd22d;fill-opacity:1;stroke:none;stroke-width:0.264583px;stroke-linecap:butt;stroke-linejoin:miter;stroke-opacity:1"
       d="m 114.36019,137.84721 c 14.47664,-19.06069 -9.39157,-17.85333 -4.95677,-34.44312 -13.82613,24.62507 7.40574,13.08752 4.95677,34.44312 z"
       id="path26417" />
  </g>
</svg>